<?xml version="1.0" encoding="UTF-8"?>
<svg id="Layer_1" data-name="Layer 1" xmlns="http://www.w3.org/2000/svg" viewBox="0 0 296.82 152.96">
  <defs>
    <style>
      .cls-1 { fill: #003168; }
      @media (prefers-color-scheme: dark) {
        .cls-1 { fill: #ffffff; }
      }
    </style>
  </defs>
  <path class="cls-1" d="M296.21,59.57c-5.95-24.57-53.66-34.85-112.65-26.55,3.88-11.24,3.71-20.66-1.37-26.61-13.29-15.59-55.28-1.74-94.78,30.92C41.44,25.68,0,19.13,0,19.13c31.19,8.71,57.46,17.05,79.56,24.95-23.23,20.91-39.48,43.67-45.17,61.51-3.03,6.19-4.02,12.26-2.64,17.98,1,4.12,3.17,7.84,6.37,11.13-.81-1.22-1.45-2.52-1.9-3.9-6.41-19.97,29.27-49.29,79.69-65.47,3.26-1.05,6.5-2,9.71-2.89,47.39,21.36,63.2,38.3,67.97,49-14.03,9.97-32.9,19.29-54.46,26.21-9.25,2.97-18.36,5.29-27.1,6.98-22.74,4.39-43.01,4.49-56.97.56,26.55,10.4,72.2,10.7,121.59-1.25,73.03-17.67,126.55-55.45,119.55-84.38ZM151.28,56.94c7.39-1.12,14.46-1.77,21.04-1.94,24.65-.65,42.67,5.25,46.51,17.19,2.52,7.85-1.47,17.14-10.29,26.52-2.71-15.9-26.57-30.01-57.26-41.77Z"/>
</svg>
